<svg xmlns="http://www.w3.org/2000/svg" viewBox="0 0 45 45" width="450" height="450" shape-rendering="crispEdges" role="img" aria-label="QR code for https://register.nexuse.org/?src=flier">
<title>NEXUS-E registration QR code</title>
<rect width="45" height="45" fill="#ffffff"/>
<path fill="#06361e" d="M4 4h7v1h-7zM12 4h3v1h-3zM17 4h2v1h-2zM20 4h5v1h-5zM26 4h1v1h-1zM30 4h1v1h-1zM34 4h7v1h-7zM4 5h1v1h-1zM10 5h1v1h-1zM15 5h1v1h-1zM17 5h1v1h-1zM20 5h1v1h-1zM25 5h1v1h-1zM28 5h3v1h-3zM34 5h1v1h-1zM40 5h1v1h-1zM4 6h1v1h-1zM6 6h3v1h-3zM10 6h1v1h-1zM12 6h2v1h-2zM15 6h1v1h-1zM17 6h1v1h-1zM19 6h2v1h-2zM24 6h2v1h-2zM30 6h1v1h-1zM32 6h1v1h-1zM34 6h1v1h-1zM36 6h3v1h-3zM40 6h1v1h-1zM4 7h1v1h-1zM6 7h3v1h-3zM10 7h1v1h-1zM13 7h4v1h-4zM18 7h1v1h-1zM20 7h1v1h-1zM22 7h2v1h-2zM25 7h1v1h-1zM28 7h2v1h-2zM31 7h2v1h-2zM34 7h1v1h-1zM36 7h3v1h-3zM40 7h1v1h-1zM4 8h1v1h-1zM6 8h3v1h-3zM10 8h1v1h-1zM12 8h1v1h-1zM16 8h3v1h-3zM20 8h1v1h-1zM26 8h5v1h-5zM34 8h1v1h-1zM36 8h3v1h-3zM40 8h1v1h-1zM4 9h1v1h-1zM10 9h1v1h-1zM13 9h2v1h-2zM16 9h6v1h-6zM23 9h3v1h-3zM29 9h2v1h-2zM32 9h1v1h-1zM34 9h1v1h-1zM40 9h1v1h-1zM4 10h7v1h-7zM12 10h1v1h-1zM14 10h1v1h-1zM16 10h1v1h-1zM18 10h1v1h-1zM20 10h1v1h-1zM22 10h1v1h-1zM24 10h1v1h-1zM26 10h1v1h-1zM28 10h1v1h-1zM30 10h1v1h-1zM32 10h1v1h-1zM34 10h7v1h-7zM12 11h1v1h-1zM14 11h1v1h-1zM16 11h1v1h-1zM20 11h1v1h-1zM26 11h1v1h-1zM29 11h1v1h-1zM31 11h2v1h-2zM9 12h2v1h-2zM13 12h1v1h-1zM15 12h2v1h-2zM18 12h5v1h-5zM24 12h2v1h-2zM28 12h1v1h-1zM30 12h1v1h-1zM32 12h1v1h-1zM34 12h1v1h-1zM36 12h1v1h-1zM38 12h1v1h-1zM40 12h1v1h-1zM5 13h4v1h-4zM12 13h1v1h-1zM21 13h3v1h-3zM27 13h4v1h-4zM32 13h2v1h-2zM35 13h4v1h-4zM8 14h5v1h-5zM14 14h3v1h-3zM18 14h2v1h-2zM22 14h3v1h-3zM26 14h1v1h-1zM29 14h4v1h-4zM34 14h2v1h-2zM37 14h4v1h-4zM7 15h3v1h-3zM14 15h2v1h-2zM18 15h1v1h-1zM21 15h1v1h-1zM24 15h3v1h-3zM30 15h1v1h-1zM34 15h2v1h-2zM37 15h1v1h-1zM39 15h1v1h-1zM4 16h1v1h-1zM6 16h1v1h-1zM9 16h3v1h-3zM15 16h1v1h-1zM19 16h1v1h-1zM21 16h2v1h-2zM24 16h2v1h-2zM27 16h2v1h-2zM31 16h1v1h-1zM34 16h1v1h-1zM37 16h1v1h-1zM39 16h2v1h-2zM4 17h3v1h-3zM9 17h1v1h-1zM11 17h1v1h-1zM16 17h3v1h-3zM22 17h2v1h-2zM27 17h2v1h-2zM30 17h2v1h-2zM33 17h1v1h-1zM35 17h1v1h-1zM38 17h1v1h-1zM4 18h1v1h-1zM8 18h3v1h-3zM12 18h2v1h-2zM16 18h1v1h-1zM21 18h1v1h-1zM23 18h1v1h-1zM25 18h2v1h-2zM28 18h1v1h-1zM30 18h8v1h-8zM39 18h2v1h-2zM5 19h1v1h-1zM8 19h1v1h-1zM13 19h1v1h-1zM15 19h1v1h-1zM17 19h2v1h-2zM23 19h1v1h-1zM25 19h2v1h-2zM28 19h1v1h-1zM31 19h1v1h-1zM33 19h3v1h-3zM37 19h3v1h-3zM4 20h1v1h-1zM6 20h1v1h-1zM10 20h2v1h-2zM16 20h2v1h-2zM20 20h5v1h-5zM26 20h1v1h-1zM29 20h2v1h-2zM33 20h2v1h-2zM36 20h1v1h-1zM38 20h3v1h-3zM6 21h1v1h-1zM8 21h2v1h-2zM11 21h1v1h-1zM13 21h3v1h-3zM18 21h2v1h-2zM21 21h2v1h-2zM26 21h2v1h-2zM30 21h4v1h-4zM35 21h1v1h-1zM38 21h1v1h-1zM4 22h1v1h-1zM8 22h1v1h-1zM10 22h1v1h-1zM12 22h3v1h-3zM16 22h1v1h-1zM20 22h1v1h-1zM25 22h1v1h-1zM28 22h1v1h-1zM30 22h7v1h-7zM38 22h1v1h-1zM40 22h1v1h-1zM4 23h6v1h-6zM11 23h2v1h-2zM14 23h3v1h-3zM18 23h2v1h-2zM24 23h2v1h-2zM28 23h1v1h-1zM30 23h3v1h-3zM35 23h1v1h-1zM37 23h1v1h-1zM6 24h1v1h-1zM10 24h3v1h-3zM16 24h2v1h-2zM24 24h2v1h-2zM28 24h3v1h-3zM33 24h4v1h-4zM38 24h3v1h-3zM5 25h3v1h-3zM11 25h2v1h-2zM17 25h1v1h-1zM19 25h4v1h-4zM25 25h1v1h-1zM27 25h2v1h-2zM31 25h2v1h-2zM35 25h4v1h-4zM5 26h1v1h-1zM8 26h9v1h-9zM20 26h1v1h-1zM22 26h2v1h-2zM25 26h2v1h-2zM31 26h1v1h-1zM34 26h1v1h-1zM39 26h2v1h-2zM5 27h5v1h-5zM11 27h2v1h-2zM15 27h2v1h-2zM19 27h4v1h-4zM25 27h1v1h-1zM27 27h2v1h-2zM30 27h2v1h-2zM35 27h1v1h-1zM39 27h2v1h-2zM8 28h6v1h-6zM16 28h3v1h-3zM20 28h1v1h-1zM22 28h1v1h-1zM25 28h3v1h-3zM29 28h2v1h-2zM32 28h4v1h-4zM37 28h1v1h-1zM4 29h2v1h-2zM7 29h1v1h-1zM9 29h1v1h-1zM12 29h4v1h-4zM17 29h1v1h-1zM22 29h1v1h-1zM24 29h1v1h-1zM26 29h1v1h-1zM28 29h1v1h-1zM30 29h1v1h-1zM32 29h1v1h-1zM34 29h2v1h-2zM37 29h3v1h-3zM4 30h1v1h-1zM7 30h1v1h-1zM9 30h7v1h-7zM17 30h2v1h-2zM26 30h1v1h-1zM29 30h1v1h-1zM34 30h2v1h-2zM37 30h1v1h-1zM39 30h2v1h-2zM4 31h1v1h-1zM7 31h3v1h-3zM13 31h1v1h-1zM17 31h1v1h-1zM21 31h1v1h-1zM24 31h2v1h-2zM28 31h1v1h-1zM30 31h2v1h-2zM33 31h1v1h-1zM37 31h4v1h-4zM4 32h1v1h-1zM8 32h3v1h-3zM12 32h2v1h-2zM15 32h1v1h-1zM19 32h1v1h-1zM21 32h2v1h-2zM24 32h2v1h-2zM29 32h2v1h-2zM32 32h9v1h-9zM12 33h2v1h-2zM18 33h3v1h-3zM23 33h1v1h-1zM25 33h5v1h-5zM32 33h1v1h-1zM36 33h2v1h-2zM4 34h7v1h-7zM15 34h1v1h-1zM17 34h2v1h-2zM23 34h1v1h-1zM25 34h1v1h-1zM27 34h1v1h-1zM29 34h2v1h-2zM32 34h1v1h-1zM34 34h1v1h-1zM36 34h3v1h-3zM40 34h1v1h-1zM4 35h1v1h-1zM10 35h1v1h-1zM12 35h2v1h-2zM17 35h3v1h-3zM21 35h1v1h-1zM23 35h2v1h-2zM26 35h3v1h-3zM32 35h1v1h-1zM36 35h2v1h-2zM39 35h2v1h-2zM4 36h1v1h-1zM6 36h3v1h-3zM10 36h1v1h-1zM13 36h2v1h-2zM16 36h2v1h-2zM19 36h1v1h-1zM21 36h1v1h-1zM25 36h2v1h-2zM28 36h9v1h-9zM38 36h3v1h-3zM4 37h1v1h-1zM6 37h3v1h-3zM10 37h1v1h-1zM13 37h2v1h-2zM16 37h2v1h-2zM19 37h2v1h-2zM22 37h2v1h-2zM26 37h1v1h-1zM31 37h1v1h-1zM34 37h1v1h-1zM38 37h1v1h-1zM4 38h1v1h-1zM6 38h3v1h-3zM10 38h1v1h-1zM14 38h1v1h-1zM17 38h3v1h-3zM23 38h1v1h-1zM25 38h1v1h-1zM27 38h3v1h-3zM33 38h1v1h-1zM35 38h1v1h-1zM38 38h1v1h-1zM40 38h1v1h-1zM4 39h1v1h-1zM10 39h1v1h-1zM16 39h1v1h-1zM19 39h1v1h-1zM26 39h2v1h-2zM32 39h1v1h-1zM34 39h1v1h-1zM36 39h2v1h-2zM40 39h1v1h-1zM4 40h7v1h-7zM14 40h2v1h-2zM17 40h1v1h-1zM20 40h3v1h-3zM24 40h1v1h-1zM28 40h1v1h-1zM31 40h3v1h-3zM40 40h1v1h-1z"/>
</svg>
